<svg width="125" height="79" viewBox="0 0 125 79" fill="none" xmlns="http://www.w3.org/2000/svg">
<path d="M59.9183 39.0854V49.6957H56.396V23.493H65.7376C66.8527 23.4707 67.9613 23.6597 68.9996 24.049C70.0378 24.4384 70.9851 25.0204 71.7867 25.7614C72.5964 26.4574 73.2409 27.311 73.6767 28.2649C74.1126 29.2187 74.3297 30.2506 74.3136 31.2913C74.3367 32.3375 74.1229 33.3762 73.6868 34.3361C73.2506 35.296 72.6025 36.1544 71.7867 36.8525C70.1532 38.3411 68.1368 39.0847 65.7376 39.0833H59.9183V39.0854ZM59.9183 26.7189V35.8657H65.8251C66.4727 35.8841 67.1172 35.7731 67.7173 35.5398C68.3174 35.3065 68.8599 34.9561 69.3102 34.511C69.7581 34.0948 70.1142 33.597 70.3573 33.047C70.6005 32.4971 70.7258 31.9061 70.7258 31.309C70.7258 30.712 70.6005 30.121 70.3573 29.5711C70.1142 29.0211 69.7581 28.5233 69.3102 28.1071C68.8656 27.6526 68.3249 27.2936 67.7241 27.054C67.1232 26.8143 66.476 26.6993 65.8251 26.7168H59.9183V26.7189ZM82.43 31.1826C85.0335 31.1826 87.0885 31.8474 88.5951 33.1771C90.1017 34.5068 90.8543 36.3299 90.8528 38.6464V49.6957H87.4837V47.2078H87.3306C85.8721 49.2567 83.9323 50.2811 81.5112 50.2811C79.4445 50.2811 77.7155 49.6957 76.3241 48.5249C75.6563 47.9876 75.1225 47.3146 74.7614 46.555C74.4004 45.7955 74.2212 44.9685 74.237 44.1344C74.237 42.2793 74.9706 40.804 76.4378 39.7084C77.9051 38.6129 79.8638 38.0637 82.3141 38.061C84.4056 38.061 86.1281 38.4268 87.4815 39.1586V38.3892C87.4855 37.8206 87.357 37.2582 87.1054 36.7429C86.8538 36.2276 86.4853 35.7723 86.0267 35.41C85.0952 34.6069 83.8814 34.1687 82.6269 34.1827C80.6594 34.1827 79.1025 34.9758 77.9561 36.5619L74.8539 34.6949C76.5604 32.3534 79.0857 31.1826 82.43 31.1826ZM77.873 44.2076C77.8706 44.636 77.9754 45.0587 78.1786 45.4406C78.3818 45.8224 78.6776 46.1523 79.0412 46.4028C79.8202 46.9884 80.7871 47.2987 81.7781 47.2809C83.2644 47.2786 84.6892 46.7132 85.7401 45.7087C86.9069 44.6592 87.4903 43.4278 87.4903 42.0145C86.392 41.1782 84.8606 40.7601 82.896 40.7601C81.4653 40.7601 80.2722 41.0897 79.3169 41.749C78.3521 42.418 77.873 43.2313 77.873 44.2076ZM110.192 31.768L98.4311 57.5985H94.7951L99.1597 48.5605L91.426 31.768H95.2546L100.844 44.6467H100.921L106.357 31.768H110.192Z" fill="#5F6368"/>
<path d="M45.6846 36.7981C45.6859 35.7723 45.5952 34.7483 45.4133 33.7373H30.5586V39.5348H39.0667C38.8926 40.4608 38.5241 41.3434 37.9834 42.1296C37.4427 42.9158 36.7411 43.5892 35.9207 44.1093V47.8725H40.9985C43.9716 45.2529 45.6846 41.3788 45.6846 36.7981Z" fill="#4285F4"/>
<path d="M30.5586 51.508C34.8093 51.508 38.3885 50.1741 40.9984 47.8744L35.9207 44.1111C34.5074 45.0268 32.6872 45.5495 30.5586 45.5495C26.45 45.5495 22.9627 42.9027 21.7157 39.3359H16.4849V43.2142C17.7959 45.7073 19.8062 47.8031 22.2914 49.2677C24.7766 50.7322 27.6388 51.5079 30.5586 51.508Z" fill="#34A853"/>
<path d="M21.7158 39.3365C21.0565 37.4675 21.0565 35.4435 21.7158 33.5745V29.6963H16.4849C15.382 31.7936 14.8076 34.1083 14.8076 36.4555C14.8076 38.8027 15.382 41.1175 16.4849 43.2147L21.7158 39.3365Z" fill="#FBBC04"/>
<path d="M30.5586 27.3608C32.8049 27.3258 34.9755 28.1369 36.6011 29.6188L41.0969 25.3224C38.2461 22.7636 34.4694 21.3587 30.5586 21.4024C27.6388 21.4025 24.7766 22.1781 22.2914 23.6427C19.8062 25.1072 17.7959 27.203 16.4849 29.6962L21.7157 33.5744C22.9627 30.0077 26.45 27.3608 30.5586 27.3608Z" fill="#EA4335"/>
</svg>
