<svg width="85" height="27" viewBox="0 0 85 27" fill="none" xmlns="http://www.w3.org/2000/svg">
<path d="M83.758 8.08672C83.0039 5.90068 80.9488 4.33091 78.535 4.33091H78.4845C76.9153 4.33091 75.5012 4.99306 74.4945 6.05605C73.4862 4.99306 72.072 4.33091 70.5045 4.33091H70.454C69.0747 4.33091 67.8139 4.84295 66.8455 5.69056V5.2597C66.8124 4.83059 66.4641 4.49338 66.0339 4.49338H62.3313C61.8785 4.49338 61.5128 4.86418 61.5128 5.32502V25.7109C61.5128 26.1717 61.8785 26.5426 62.3313 26.5426H66.0339C66.4467 26.5426 66.7863 26.23 66.8403 25.8257L66.8385 11.1909C66.8382 11.142 66.8405 11.0931 66.8455 11.0444C66.9047 10.391 67.3767 9.85425 68.1221 9.78713H68.8047C69.1165 9.81536 69.3795 9.92663 69.5867 10.0944C69.9089 10.3539 70.0883 10.753 70.0883 11.1909L70.1022 25.7533C70.1022 26.2141 70.4696 26.5867 70.9207 26.5867H74.6233C75.0605 26.5867 75.4157 26.2335 75.4367 25.7939L75.435 11.1715C75.4332 10.6912 75.6527 10.2568 76.0375 9.99901C76.2274 9.87538 76.4555 9.79244 76.7185 9.76771H77.4012C78.2023 9.83834 78.6865 10.4546 78.6847 11.1715L78.6987 25.7144C78.6987 26.1753 79.0662 26.5461 79.5172 26.5461H83.2198C83.6709 26.5461 84.0383 26.1753 84.0383 25.7144V10.0732C84.0383 9.00665 83.92 8.55287 83.758 8.08672ZM58.6921 4.54649H56.5743V1.05731C56.5743 0.638817 56.2399 0.299805 55.8272 0.299805C55.7784 0.299805 55.7314 0.306812 55.6861 0.315672C53.3384 0.969019 53.8087 4.26574 49.5226 4.54649H49.1064C49.0437 4.54649 48.9845 4.5553 48.927 4.56766C48.5613 4.6507 48.2861 4.98085 48.2861 5.37642V9.13043C48.2861 9.58777 48.6536 9.96032 49.1064 9.96032H51.3409L51.3374 25.8788C51.3374 26.3326 51.6996 26.6999 52.1472 26.6999H55.808C56.2538 26.6999 56.6162 26.3326 56.6162 25.8788L56.6178 9.96032H58.6921C59.1431 9.96032 59.5106 9.58777 59.5106 9.13043V5.37642C59.5106 4.91909 59.1431 4.54649 58.6921 4.54649Z" fill="#00BAF2"/>
<path d="M45.3705 4.5468H41.6679C41.2168 4.5468 40.851 4.9194 40.851 5.37669V13.1391C40.8423 13.6193 40.4592 14.0043 39.9837 14.0043H38.4337C37.953 14.0043 37.5647 13.6123 37.5647 13.1249L37.5507 5.37674C37.5507 4.9194 37.1833 4.54685 36.7322 4.54685H33.0296C32.5768 4.54685 32.2111 4.9194 32.2111 5.37674V13.8842C32.2111 17.1156 34.4838 19.4199 37.6726 19.4199C37.6726 19.4199 40.0656 19.4199 40.1388 19.434C40.5707 19.4835 40.9068 19.8507 40.9068 20.3028C40.9068 20.7495 40.5776 21.115 40.1509 21.1698C40.1301 21.1733 40.1109 21.1786 40.0883 21.1822L34.6736 21.2016C34.2208 21.2016 33.8551 21.5741 33.8551 22.0315V25.7838C33.8551 26.2429 34.2208 26.6137 34.6736 26.6137H40.7274C43.918 26.6137 46.189 24.3111 46.189 21.078V5.37674C46.189 4.9194 45.8233 4.5468 45.3705 4.5468ZM9.53177 11.4254V13.7421C9.53177 14.2276 9.14339 14.6232 8.66448 14.6232L6.31506 14.625V9.98275H8.66448C9.14339 9.98275 9.53177 10.3747 9.53177 10.8621V11.4254ZM9.85745 4.5459H1.76429C1.32018 4.5459 0.961426 4.91144 0.961426 5.35992V9.03804C0.961426 9.0451 0.963154 9.05216 0.963154 9.05922C0.963154 9.07689 0.961426 9.09455 0.961426 9.11042V25.7581C0.961426 26.2102 1.29579 26.5793 1.71033 26.5898H5.48253C5.9336 26.5898 6.30104 26.219 6.30104 25.7599L6.31502 20.0547H9.8574C12.8215 20.0547 14.8871 17.9693 14.8871 14.9516V9.6561C14.8871 6.63838 12.8216 4.5459 9.85745 4.5459ZM24.8944 20.2387V20.8249C24.8944 20.8726 24.8875 20.9185 24.8806 20.9627C24.8719 21.0041 24.8602 21.0448 24.8457 21.0845C24.7307 21.413 24.4068 21.6513 24.0219 21.6513H22.4806C21.9999 21.6513 21.6081 21.2805 21.6081 20.8249V20.1169C21.6081 20.1081 21.6063 20.0992 21.6063 20.0904L21.6081 18.2063V17.6165L21.6098 17.6112C21.6116 17.1574 21.9999 16.7902 22.4806 16.7902H24.0219C24.5043 16.7902 24.8945 17.1592 24.8945 17.6166L24.8944 20.2387ZM24.3059 4.56747H19.1682C18.7136 4.56747 18.3462 4.91709 18.3462 5.34615V6.80646C18.3462 6.81527 18.3479 6.82588 18.3479 6.83469C18.3479 6.8453 18.3461 6.85586 18.3461 6.86648V8.86711C18.3461 9.32095 18.7363 9.69174 19.217 9.69174H24.109C24.4957 9.75356 24.8022 10.0396 24.8458 10.4863V10.9702C24.8022 11.3957 24.4992 11.7064 24.1299 11.7418H21.7074C18.4855 11.7418 16.1901 13.9119 16.1901 16.9597V21.3247C16.1901 24.3547 18.1633 26.5107 21.3626 26.5107H28.0764C29.2815 26.5107 30.2586 25.5855 30.2586 24.4465V10.202C30.2586 6.7482 28.5031 4.56747 24.3059 4.56747Z" fill="#1F336B"/>
</svg>
