<svg width="110" height="37" viewBox="0 0 110 37" fill="none" xmlns="http://www.w3.org/2000/svg">
<path d="M31.8648 21.8474C33.6942 14.0158 28.8967 6.1679 21.1493 4.31863C13.4019 2.46936 5.63836 7.31902 3.80897 15.1506C1.97959 22.9823 6.7771 30.8302 14.5245 32.6795C22.2719 34.5287 30.0355 29.6791 31.8648 21.8474Z" fill="#5F259F"/>
<path d="M76.3198 26.8265V21.5354C76.3198 20.233 75.8366 19.5818 74.6287 19.5818C74.1456 19.5818 73.5819 19.6632 73.2598 19.7446V27.4777C73.2598 27.7219 73.0182 27.9661 72.7766 27.9661H70.9245C70.683 27.9661 70.4414 27.7219 70.4414 27.4777V18.4421C70.4414 18.1165 70.683 17.8723 70.9245 17.7909C72.1324 17.3839 73.3403 17.1397 74.6287 17.1397C77.5277 17.1397 79.1382 18.6863 79.1382 21.5354V27.5591C79.1382 27.8033 78.8967 28.0475 78.6551 28.0475H77.5277C76.803 28.0475 76.3198 27.4777 76.3198 26.8265ZM83.5672 23.6518L83.4867 24.3845C83.4867 25.3613 84.1309 25.9311 85.1777 25.9311C85.983 25.9311 86.7077 25.6869 87.513 25.2799C87.5935 25.2799 87.674 25.1985 87.7546 25.1985C87.9156 25.1985 87.9961 25.2799 88.0767 25.3613C88.1572 25.4427 88.3182 25.6869 88.3182 25.6869C88.4793 25.9311 88.6404 26.2567 88.6404 26.5009C88.6404 26.9079 88.3988 27.3149 88.0767 27.4777C87.1909 27.9661 86.144 28.2103 85.0167 28.2103C83.7282 28.2103 82.6814 27.8847 81.8761 27.2335C81.0709 26.5009 80.5877 25.5241 80.5877 24.3031V21.1284C80.5877 18.6049 82.1982 17.0583 84.9361 17.0583C87.5935 17.0583 89.1235 18.5235 89.1235 21.1284V23.082C89.1235 23.3262 88.8819 23.5704 88.6404 23.5704H83.5672V23.6518ZM83.4867 21.861H86.5467V21.047C86.5467 20.0702 85.983 19.419 85.0167 19.419C84.0503 19.419 83.4867 19.9888 83.4867 21.047V21.861ZM104.021 23.6518L103.94 24.3845C103.94 25.3613 104.585 25.9311 105.631 25.9311C106.437 25.9311 107.161 25.6869 107.967 25.2799C108.047 25.2799 108.128 25.1985 108.208 25.1985C108.369 25.1985 108.45 25.2799 108.53 25.3613C108.611 25.4427 108.772 25.6869 108.772 25.6869C108.933 25.9311 109.094 26.2567 109.094 26.5009C109.094 26.9079 108.852 27.3149 108.53 27.4777C107.645 27.9661 106.598 28.2103 105.47 28.2103C104.182 28.2103 103.135 27.8847 102.33 27.2335C101.525 26.5009 101.041 25.5241 101.041 24.3031V21.1284C101.041 18.6049 102.652 17.0583 105.39 17.0583C108.047 17.0583 109.577 18.5235 109.577 21.1284V23.082C109.577 23.3262 109.336 23.5704 109.094 23.5704H104.021V23.6518ZM103.94 21.861H107V21.047C107 20.0702 106.437 19.419 105.47 19.419C104.504 19.419 103.94 19.9888 103.94 21.047V21.861ZM56.5908 28.0475H57.7182C57.9598 28.0475 58.2014 27.8033 58.2014 27.5591V21.5354C58.2014 18.7677 56.7519 17.1397 54.3361 17.1397C53.6113 17.1397 52.8061 17.3025 52.3229 17.4653V14.4534C52.3229 13.8022 51.7592 13.2324 51.115 13.2324H49.9877C49.7461 13.2324 49.5045 13.4766 49.5045 13.7208V27.5591C49.5045 27.8033 49.7461 28.0475 49.9877 28.0475H51.8398C52.0813 28.0475 52.3229 27.8033 52.3229 27.5591V19.9074C52.7256 19.7446 53.2892 19.6632 53.6919 19.6632C54.8998 19.6632 55.3829 20.233 55.3829 21.6168V26.9079C55.4635 27.4777 55.9466 28.0475 56.5908 28.0475ZM68.7503 21.2098V24.2217C68.7503 26.7451 67.0593 28.2917 64.2408 28.2917C61.5029 28.2917 59.7314 26.7451 59.7314 24.2217V21.2098C59.7314 18.6863 61.4224 17.1397 64.2408 17.1397C67.0593 17.1397 68.7503 18.6863 68.7503 21.2098ZM65.9319 21.2098C65.9319 20.233 65.3682 19.5818 64.3214 19.5818C63.2745 19.5818 62.7108 20.1516 62.7108 21.2098V24.2217C62.7108 25.1985 63.2745 25.7683 64.3214 25.7683C65.3682 25.7683 65.9319 25.1985 65.9319 24.2217V21.2098ZM47.9745 19.826C47.9745 22.4308 46.0419 24.2217 43.465 24.2217C42.8208 24.2217 42.2571 24.1403 41.6934 23.896V27.5591C41.6934 27.8033 41.4518 28.0475 41.2103 28.0475H39.3582C39.1166 28.0475 38.875 27.8033 38.875 27.5591V14.6163C38.875 14.2906 39.1166 14.0464 39.3582 13.965C40.5661 13.558 41.774 13.3138 43.0624 13.3138C45.9613 13.3138 47.9745 15.1047 47.9745 17.8723V19.826ZM45.0755 17.7095C45.0755 16.4071 44.1897 15.7559 42.9818 15.7559C42.2571 15.7559 41.774 16.0001 41.774 16.0001V21.3726C42.2571 21.6168 42.4987 21.6982 43.0624 21.6982C44.2703 21.6982 45.1561 20.9656 45.1561 19.7446V17.7095H45.0755ZM99.9946 19.826C99.9946 22.4308 98.062 24.2217 95.4851 24.2217C94.8409 24.2217 94.2772 24.1403 93.7135 23.896V27.5591C93.7135 27.8033 93.4719 28.0475 93.2304 28.0475H91.3783C91.1367 28.0475 90.8951 27.8033 90.8951 27.5591V14.6163C90.8951 14.2906 91.1367 14.0464 91.3783 13.965C92.5861 13.558 93.794 13.3138 95.0825 13.3138C97.9814 13.3138 99.9946 15.1047 99.9946 17.8723V19.826ZM97.0956 17.7095C97.0956 16.4071 96.2098 15.7559 95.0019 15.7559C94.2772 15.7559 93.794 16.0001 93.794 16.0001V21.3726C94.2772 21.6168 94.5188 21.6982 95.0825 21.6982C96.2904 21.6982 97.1762 20.9656 97.1762 19.7446V17.7095H97.0956Z" fill="#5F259F"/>
</svg>
