<svg width="97" height="37" viewBox="0 0 97 37" fill="none" xmlns="http://www.w3.org/2000/svg">
<g clip-path="url(#clip0_751_955)">
<path d="M1.26884 31.7754H1.9857L1.31407 34.8242C1.25931 34.9896 1.23598 35.1654 1.24551 35.341C1.25503 35.5166 1.29721 35.6882 1.36947 35.8454C1.46087 35.967 1.57899 36.0614 1.71282 36.1198C1.84666 36.1783 1.99187 36.1988 2.13495 36.1796C2.46633 36.1936 2.79092 36.0747 3.04741 35.8454C3.30919 35.5706 3.48587 35.2137 3.55283 34.8242L4.23124 31.7754H4.95149L4.27308 34.897C4.17184 35.4874 3.88955 36.0228 3.47255 36.4152C3.04562 36.7718 2.51722 36.953 1.98004 36.927C1.36382 36.927 0.942069 36.7642 0.71254 36.4337C0.48301 36.1032 0.441174 35.5827 0.58251 34.9118L1.26884 31.7754Z" fill="#3E3D3C"/>
<path d="M4.84961 36.7908L5.99047 31.5898L8.15687 34.6571C8.21454 34.7435 8.26994 34.831 8.32761 34.9297C8.38527 35.0284 8.44068 35.1431 8.51078 35.2652L9.27399 31.7946H9.95241L8.80702 36.9918L6.59313 33.8678L6.42353 33.6063C6.36752 33.5156 6.32159 33.4179 6.28671 33.3153L5.52124 36.8056H4.84961V36.7908Z" fill="#3E3D3C"/>
<path d="M9.89014 36.7901L10.9858 31.7754H11.7162L10.6307 36.7901H9.89014Z" fill="#3E3D3C"/>
<path d="M11.6577 36.7901L12.7647 31.7754H15.2635L15.1029 32.4624H13.3357L13.0688 33.7068H14.8372L14.6789 34.4172H12.9037L12.3881 36.7667H11.6577V36.7901Z" fill="#3E3D3C"/>
<path d="M14.9727 36.7901L16.066 31.7754H16.7965L15.7031 36.7901H14.9727Z" fill="#3E3D3C"/>
<path d="M16.7354 36.7901L17.831 31.7754H20.3298L20.1806 32.4624H18.4122L18.1453 33.7191H19.9137L19.7543 34.4283H17.978L17.6229 36.0452H19.3913L19.2308 36.7852L16.7354 36.7901Z" fill="#3E3D3C"/>
<path d="M20.0767 36.7904L21.1723 31.7757H22.1537C22.6009 31.7558 23.0487 31.7931 23.4879 31.8867C23.7132 31.9502 23.9203 32.074 24.0906 32.2468C24.3003 32.4778 24.4397 32.7736 24.4897 33.0941C24.5427 33.4885 24.5239 33.8904 24.4343 34.2769C24.3385 34.6962 24.1799 35.0953 23.9651 35.4584C23.7629 35.7963 23.4984 36.0845 23.1883 36.3045C22.9594 36.4745 22.7038 36.597 22.4341 36.6659C22.0449 36.7535 21.6475 36.7903 21.2503 36.7756H20.0767V36.7904ZM20.9676 36.043H21.5839C21.8434 36.0501 22.1029 36.0248 22.3573 35.9678C22.5329 35.9188 22.6988 35.8352 22.8468 35.7211C23.0557 35.5589 23.2313 35.3509 23.3624 35.1106C23.5078 34.8496 23.6114 34.5635 23.6689 34.2646C23.7369 33.9937 23.7568 33.7111 23.7277 33.4321C23.7005 33.2062 23.6133 32.9939 23.4766 32.8216C23.369 32.6973 23.2295 32.6113 23.0764 32.5749C22.8135 32.516 22.5452 32.4907 22.277 32.4997H21.7433L20.9676 36.043Z" fill="#3E3D3C"/>
<path d="M27.7756 34.5331L27.2849 36.7876H26.6064L27.6998 31.7729H28.8068C29.0437 31.7656 29.2806 31.7863 29.5134 31.8346C29.6473 31.8615 29.7708 31.931 29.8685 32.0344C29.989 32.1603 30.0684 32.3257 30.0946 32.5055C30.1243 32.7215 30.1159 32.9417 30.0697 33.1542C30.0178 33.3891 29.9274 33.6118 29.8029 33.8116C29.6885 33.9997 29.5409 34.1611 29.3687 34.2864C29.2308 34.3777 29.0804 34.4443 28.9232 34.4838C28.6823 34.5316 28.4376 34.5531 28.1928 34.5479H27.7711L27.7756 34.5331ZM27.9757 33.8671H28.1578C28.4463 33.8894 28.7356 33.8374 29.0024 33.7154C29.0863 33.6575 29.1581 33.581 29.2132 33.4909C29.2683 33.4009 29.3055 33.2992 29.3224 33.1925C29.3568 33.0993 29.3663 32.9974 29.3499 32.8985C29.3335 32.7997 29.2918 32.7079 29.2296 32.6338C29.0001 32.4971 28.7377 32.4403 28.4777 32.471H28.2957L27.9757 33.8671Z" fill="#3E3D3C"/>
<path d="M32.5437 36.7908L32.3175 35.497H30.5356L29.735 36.7908H28.9707L32.2825 31.5898L33.3001 36.7908H32.5437ZM30.9698 34.8175H32.2135L32.0077 33.6705C31.9951 33.5889 31.9879 33.5065 31.9862 33.4238C31.9749 33.3215 31.9704 33.2185 31.9727 33.1155C31.9306 33.2218 31.8819 33.3248 31.8268 33.4238C31.7862 33.5149 31.7398 33.6026 31.6877 33.6865L30.9698 34.8175Z" fill="#3E3D3C"/>
<path d="M34.365 36.7905L34.8659 34.5014L33.9546 31.7881H34.7189L35.2899 33.4926C35.3021 33.5514 35.3172 33.6094 35.3352 33.6665C35.3566 33.7417 35.3702 33.8145 35.3917 33.8909L35.5274 33.6665C35.576 33.5912 35.6212 33.5296 35.6665 33.4691L36.9995 31.7881H37.73L35.5963 34.4866L35.0988 36.7757H34.3684L34.365 36.7905Z" fill="#3E3D3C"/>
<path d="M41.2987 34.3125C41.3053 34.2042 41.317 34.0964 41.3338 33.9894C41.336 33.8685 41.3473 33.7481 41.3677 33.6293C41.3225 33.7415 41.2772 33.8525 41.2185 33.9783C41.158 34.0998 41.0896 34.2165 41.0138 34.3273L39.2556 37L38.6902 34.2768C38.6655 34.1694 38.6459 34.0607 38.6314 33.9512C38.6192 33.8489 38.612 33.746 38.61 33.6428C38.5862 33.7415 38.5512 33.8525 38.5172 33.9783C38.4796 34.1018 38.4339 34.2221 38.3804 34.3384L37.3538 36.8051H36.6821L38.8949 31.5918L39.5247 34.7541C39.5392 34.8356 39.5498 34.918 39.5563 35.0007C39.5682 35.1474 39.5878 35.2932 39.6151 35.4373C39.6954 35.2893 39.796 35.1142 39.9351 34.891C39.9633 34.8471 39.989 34.8014 40.012 34.7541L41.9862 31.5918L41.9161 36.8273H41.2445L41.2987 34.3125Z" fill="#3E3D3C"/>
<path d="M42.5117 36.7901L43.6074 31.7754H46.0949L45.9535 32.471H44.1806L43.9183 33.7278H45.6822L45.5227 34.4369H43.7543L43.3993 36.0538H45.1677L45.0083 36.7938L42.5117 36.7901Z" fill="#3E3D3C"/>
<path d="M45.8315 36.7908L46.9837 31.5898L49.1524 34.6571C49.2078 34.7435 49.2654 34.831 49.3231 34.9297C49.3808 35.0284 49.4362 35.1431 49.5063 35.2652L50.2695 31.7946H50.9411L49.798 36.9918L47.5898 33.8678L47.4236 33.6063C47.3662 33.5161 47.3194 33.4183 47.2845 33.3153L46.519 36.8056H45.8338L45.8315 36.7908Z" fill="#3E3D3C"/>
<path d="M53.2692 32.4622L52.3228 36.7789H51.5924L52.5388 32.4622H51.3516L51.5008 31.7666H54.6023L54.4564 32.4622H53.2692Z" fill="#3E3D3C"/>
<path d="M54.0345 35.7819L54.6824 35.4908C54.6803 35.5858 54.6965 35.6803 54.73 35.768C54.7635 35.8558 54.8135 35.9349 54.8769 36.0002C55.03 36.1259 55.2193 36.1875 55.4105 36.1741C55.6122 36.1806 55.8096 36.1095 55.968 35.973C56.1268 35.841 56.2367 35.651 56.2778 35.4378C56.3468 35.1479 56.1862 34.8803 55.7972 34.6558C55.7577 34.6265 55.7157 34.6013 55.6717 34.5806C55.3472 34.4129 55.0654 34.1609 54.8509 33.8468C54.7355 33.6004 54.7116 33.3151 54.7841 33.05C54.8687 32.6535 55.0779 32.3017 55.3755 32.056C55.6811 31.7994 56.0572 31.663 56.4429 31.6687C56.7199 31.6546 56.9948 31.7282 57.2343 31.8808C57.3274 31.9495 57.4054 32.0399 57.4625 32.1455C57.5196 32.2511 57.5544 32.3692 57.5645 32.4913L56.9211 32.8145C56.8813 32.678 56.8063 32.5568 56.7052 32.4654C56.6059 32.3898 56.487 32.3509 56.366 32.3544C56.1856 32.3488 56.0089 32.4106 55.8651 32.5296C55.7273 32.6419 55.6322 32.8057 55.5982 32.9896C55.5281 33.2794 55.7237 33.5705 56.1636 33.8357C56.1895 33.8538 56.2163 33.8702 56.2439 33.885C56.5492 34.0299 56.8129 34.2622 57.0071 34.5572C57.1256 34.8108 57.1503 35.1044 57.076 35.3773C56.9876 35.8258 56.7575 36.2261 56.4259 36.5083C56.0895 36.7898 55.6761 36.9396 55.2522 36.9338C54.9363 36.9573 54.6233 36.8538 54.3726 36.6427C54.2544 36.5419 54.1614 36.4101 54.1023 36.2596C54.0432 36.1091 54.0199 35.9448 54.0345 35.7819Z" fill="#3E3D3C"/>
<path d="M59.4087 36.7901L60.5021 31.7754H61.2325L60.1369 36.7901H59.4087Z" fill="#3E3D3C"/>
<path d="M61.1841 36.7908L62.3261 31.5898L64.497 34.6386C64.5524 34.7262 64.6101 34.8125 64.6677 34.9124C64.7254 35.0123 64.7808 35.1246 64.8486 35.2467L65.6141 31.7761H66.2857L65.1471 36.977L62.9366 33.853L62.7659 33.5915C62.7085 33.5013 62.6618 33.4035 62.6268 33.3005L61.8648 36.7908H61.1863H61.1841Z" fill="#3E3D3C"/>
<path d="M68.6115 32.4622L67.664 36.7789H66.9336L67.8799 32.4622H66.6938L66.8431 31.7666H69.9446L69.7976 32.4622H68.6115Z" fill="#3E3D3C"/>
<path d="M69.3975 36.7901L70.4942 31.7754H73.0032L72.854 32.471H71.0856L70.8187 33.7278H72.5871L72.43 34.4369H70.6616L70.3077 36.0538H72.0727L71.9132 36.7938L69.3975 36.7901Z" fill="#3E3D3C"/>
<path d="M73.9044 34.5331L73.4137 36.7729H72.7285L73.8321 31.7618H74.8497C75.0772 31.7556 75.3046 31.7759 75.5281 31.8223C75.6702 31.8505 75.8013 31.9243 75.9046 32.0344C76.0198 32.1631 76.0953 32.3278 76.1206 32.5055C76.1524 32.7167 76.145 32.9327 76.0991 33.1407C76.0332 33.4999 75.8697 33.829 75.6299 34.0854C75.3904 34.3161 75.0915 34.4604 74.7739 34.4986L75.8142 36.7729H74.9922L73.9949 34.5331H73.9044ZM74.0989 33.9165H74.2357C74.5093 33.9406 74.7842 33.8898 75.0351 33.7685C75.1167 33.7064 75.1859 33.627 75.2386 33.535C75.2912 33.443 75.3263 33.3404 75.3415 33.2332C75.4003 32.9594 75.3766 32.7621 75.2624 32.6511C75.0475 32.5074 74.7948 32.4462 74.5444 32.4772H74.4087L74.0989 33.9165Z" fill="#3E3D3C"/>
<path d="M76.2324 36.7901L77.3258 31.7754H79.8246L79.6991 32.4624H77.9307L77.665 33.7068H79.4323L79.2728 34.4172H77.4864L76.9708 36.7667H76.2324V36.7901Z" fill="#3E3D3C"/>
<path d="M82.2644 36.7908L82.0382 35.497H80.2563L79.4569 36.7908H78.6914L82.0009 31.5898L83.0276 36.8056L82.2644 36.7908ZM80.6814 34.8175H81.9252L81.7183 33.6705C81.7029 33.5893 81.6946 33.5067 81.6934 33.4238C81.6877 33.3211 81.6877 33.2182 81.6934 33.1155C81.6518 33.2227 81.6019 33.3259 81.5441 33.4238C81.5047 33.5148 81.4594 33.6026 81.4085 33.6865L80.6814 34.8175Z" fill="#3E3D3C"/>
<path d="M87.7746 32.9938C87.6206 32.8017 87.4268 32.6524 87.2093 32.5584C86.9899 32.455 86.7528 32.4041 86.5139 32.4092C86.0349 32.4071 85.571 32.5917 85.2057 32.9297C84.8201 33.2807 84.5521 33.7613 84.4436 34.2962C84.3795 34.5195 84.3605 34.7553 84.388 34.9874C84.4156 35.2195 84.4889 35.4423 84.603 35.6405C84.7166 35.8163 84.8701 35.957 85.0485 36.0486C85.2269 36.1403 85.424 36.1799 85.6206 36.1635C85.8917 36.166 86.1606 36.1107 86.4121 36.0007C86.6978 35.8852 86.9673 35.7266 87.2127 35.5295L86.9978 36.4533C86.7761 36.6095 86.5335 36.7273 86.2787 36.8023C86.0268 36.8776 85.7665 36.9145 85.5053 36.9121C85.1919 36.9198 84.8804 36.8564 84.5906 36.7259C84.3328 36.6059 84.1091 36.4131 83.9427 36.1672C83.769 35.9211 83.6582 35.6291 83.6216 35.3211C83.5741 34.9724 83.5934 34.6167 83.6781 34.2765C83.7578 33.9104 83.8931 33.5615 84.0784 33.2442C84.2622 32.9192 84.4976 32.6327 84.7738 32.3981C85.0374 32.1542 85.3393 31.9641 85.6647 31.8369C85.9748 31.713 86.3024 31.65 86.6326 31.6507C86.8807 31.6464 87.1277 31.6881 87.363 31.774C87.5845 31.8645 87.7888 31.9987 87.9657 32.1699L87.7746 32.9938Z" fill="#3E3D3C"/>
<path d="M87.8433 36.7901L88.9366 31.7754H91.4332L91.2828 32.471H89.5156L89.2487 33.7278H91.0171L90.8566 34.4369H89.0859L88.7309 36.0538H90.5026L90.3432 36.7938L87.8433 36.7901Z" fill="#3E3D3C"/>
<path d="M74.5658 27.4096H69.5659L76.5151 0H81.523L74.5658 27.4096Z" fill="#71716F"/>
<path d="M71.9661 0.863809C71.6246 0.336764 71.0909 0.0732422 70.365 0.0732422H42.8418L41.485 5.44811H66.5116L65.0508 11.1843H40.0264L35.8745 27.5445H40.8823L43.6638 16.5678H66.1713C66.8947 16.5624 67.5946 16.2869 68.1545 15.7871C68.7472 15.3052 69.1767 14.6225 69.3757 13.8459L72.1572 2.86921C72.3765 2.03918 72.3064 1.37934 71.9661 0.863809Z" fill="#71716F"/>
<path d="M32.9506 25.6905C32.8155 26.2181 32.5265 26.6834 32.1271 27.0157C31.7278 27.348 31.2401 27.5292 30.7378 27.5318H4.92985C4.62842 27.5561 4.32623 27.4972 4.05116 27.3605C3.77609 27.2239 3.537 27.0139 3.35594 26.7499C3.18143 26.4684 3.07066 26.1458 3.03272 25.8085C2.99478 25.4713 3.03077 25.129 3.13771 24.8099L9.43225 0.0839844H14.4412L8.81716 22.1915H28.8473L34.4713 0.0839844H39.4792L32.9506 25.6905Z" fill="#71716F"/>
<path d="M90.1695 0.0498047L96.5002 13.7854L83.1875 27.5211L90.1695 0.0498047Z" fill="#078142"/>
<path d="M85.7212 0.0498047L92.0519 13.7854L78.729 27.5211L85.7212 0.0498047Z" fill="#EA7726"/>
</g>
<defs>
<clipPath id="clip0_751_955">
<rect width="96" height="37" fill="white" transform="translate(0.5)"/>
</clipPath>
</defs>
</svg>
