<svg width="37" height="38" viewBox="0 0 37 38" fill="none" xmlns="http://www.w3.org/2000/svg">
<g clip-path="url(#clip0_724_320)">
<path d="M10.4869 8.2662C19.6303 -0.338713 30.7249 -2.57074 35.1633 3.29212C39.6044 9.1575 35.7018 21.0095 26.5584 29.6118C17.4124 38.2774 6.32039 40.5069 1.81268 34.5809C-2.55641 28.6549 1.34618 16.8635 10.4869 8.2662Z" fill="#F06321"/>
<path d="M35.1634 3.29198C36.7095 5.45836 37.1813 8.32919 36.8455 11.5762C35.6352 15.9721 32.6763 20.6912 28.2379 24.7664C20.0355 32.3512 10.2177 34.2626 6.11787 29.1017C2.14863 23.9382 5.51275 13.6164 13.5152 6.09969C14.5228 5.20334 15.5305 4.37517 16.5408 3.67577C24.138 -0.914531 31.6687 -1.29327 35.1634 3.29198Z" fill="#AE282E"/>
<path d="M28.1045 4.63005V4.82194C28.0352 5.90513 27.3635 7.24334 26.1532 8.38965C24.3405 10.046 21.9201 10.6823 20.9071 9.73038C19.7662 8.71031 20.4406 6.47829 22.256 4.69317C24.138 2.9737 26.5584 2.40055 27.566 3.42061C27.9019 3.73875 28.1045 4.12002 28.1045 4.63005ZM21.1124 33.8787C16.8073 36.9364 12.3715 38.469 8.06641 37.8327C9.88175 37.8958 11.3639 35.9819 12.5741 33.4343C13.7843 30.821 14.4561 28.4021 15.0612 26.1045C15.9356 22.4736 16.0022 19.926 15.5304 19.3528C14.792 18.4565 13.1792 18.6509 11.2946 19.671C10.3536 20.181 9.14335 19.8629 10.5588 18.2065C12.0356 16.5502 17.7483 12.5962 19.7662 11.9599C22.0534 11.3867 24.6071 12.2149 23.7354 14.5706C23.125 16.2901 15.1945 35.9188 21.1124 33.8787Z" fill="white"/>
</g>
<defs>
<clipPath id="clip0_724_320">
<rect width="37" height="38" fill="white"/>
</clipPath>
</defs>
</svg>
